<svg width="20" height="20" viewBox="0 0 20 20" fill="none" xmlns="http://www.w3.org/2000/svg">
<path d="M14.4132 10.6633L8.16325 16.9133C7.98713 17.0894 7.74826 17.1884 7.49918 17.1884C7.25011 17.1884 7.01124 17.0894 6.83512 16.9133C6.659 16.7372 6.56006 16.4983 6.56006 16.2492C6.56006 16.0002 6.659 15.7613 6.83512 15.5852L12.4218 10L6.83668 4.41331C6.74948 4.3261 6.6803 4.22257 6.63311 4.10863C6.58591 3.99469 6.56162 3.87257 6.56162 3.74925C6.56162 3.62592 6.58591 3.5038 6.63311 3.38986C6.6803 3.27592 6.74948 3.17239 6.83668 3.08518C6.92389 2.99798 7.02742 2.9288 7.14136 2.88161C7.2553 2.83441 7.37742 2.81012 7.50075 2.81012C7.62408 2.81012 7.7462 2.83441 7.86014 2.88161C7.97408 2.9288 8.0776 2.99798 8.16481 3.08518L14.4148 9.33518C14.5021 9.42238 14.5713 9.52596 14.6185 9.63997C14.6657 9.75398 14.6899 9.87618 14.6898 9.99957C14.6896 10.123 14.6651 10.2451 14.6177 10.359C14.5702 10.4729 14.5007 10.5763 14.4132 10.6633Z" fill="#6B788E"/>
</svg>
